<svg width="542" height="542" viewBox="0 0 542 542" fill="none" xmlns="http://www.w3.org/2000/svg">
<path d="M152.092 60.7936L155.867 61.8722C147.778 89.3747 163.956 127.663 190.919 127.663C246.463 127.663 291.222 55.401 370.494 55.9403C433.588 55.9403 447.07 112.024 447.07 145.998C447.07 244.683 331.667 264.097 302.547 265.175L303.086 267.872C334.903 267.872 453.002 244.683 453.002 364.939C453.002 515.934 242.689 510.002 210.872 432.887C180.673 360.086 322.5 256.008 360.788 305.081C376.966 325.034 346.227 380.578 316.029 410.777L313.872 409.159C324.657 396.217 325.196 391.903 323.039 382.735C314.95 351.997 190.919 392.981 216.804 430.19C241.071 464.703 325.196 436.662 360.788 383.814C387.212 344.986 393.683 271.646 334.903 273.264C305.783 273.803 279.898 290.521 281.516 267.872C283.673 234.976 346.767 294.835 365.102 193.992C380.74 105.553 327.353 88.8355 308.479 88.8355C228.668 88.8355 205.479 208.013 162.877 208.013C138.61 208.013 133.218 175.118 133.218 149.772C133.218 111.485 142.385 76.4324 152.092 60.7936ZM265.338 148.694L318.186 143.841C225.971 323.416 190.38 482.499 88.9979 482.499L108.951 343.369C194.694 348.222 220.579 241.448 265.338 148.694Z" fill="black"/>
</svg>
