<svg width="542" height="542" viewBox="0 0 542 542" fill="none" xmlns="http://www.w3.org/2000/svg">
<path d="M120.138 508.07H421.862V464.966H335.655V421.862H292.552V464.966H249.448V421.862H206.345V464.966H120.138V508.07ZM77.034 464.966H120.138V292.552H77.034V464.966ZM163.241 378.759H206.345V335.655H163.241V378.759ZM249.448 421.862H292.552V378.759H249.448V421.862ZM120.138 292.552H163.241V77.034H120.138V292.552ZM335.655 378.759H378.759V335.655H335.655V378.759ZM421.862 464.966H464.966V292.552H421.862V464.966ZM206.345 249.448H335.655V77.034H292.552V206.345H249.448V77.034H206.345V249.448ZM163.241 77.034H206.345V33.9304H163.241V77.034ZM378.759 292.552H421.862V77.034H378.759V292.552ZM335.655 77.034H378.759V33.9304H335.655V77.034Z" fill="black"/>
</svg>
